<svg width="65" height="63" viewBox="0 0 65 63" fill="none" xmlns="http://www.w3.org/2000/svg">
<path d="M32.5 0L34.6929 4.49351L37.5841 0.387817L39.0248 5.1585L42.5431 1.54172L43.196 6.4721L47.2547 3.43329L47.1038 8.40198L51.603 6.01596L50.6521 10.9006L55.481 9.22614L53.7533 13.9065L58.7931 12.9848L56.3313 17.3455L61.4577 17.1993L58.3224 21.1331L63.4093 21.766L59.6777 25.176L64.5999 26.5723L60.3638 29.3745L65 31.5L60.3638 33.6255L64.5999 36.4277L59.6777 37.824L63.4093 41.234L58.3224 41.8669L61.4577 45.8007L56.3313 45.6545L58.7931 50.0152L53.7533 49.0935L55.481 53.7739L50.6521 52.0994L51.603 56.984L47.1038 54.598L47.2547 59.5667L43.196 56.5279L42.5431 61.4583L39.0248 57.8415L37.5841 62.6122L34.6929 58.5065L32.5 63L30.3071 58.5065L27.4159 62.6122L25.9752 57.8415L22.4569 61.4583L21.804 56.5279L17.7453 59.5667L17.8962 54.598L13.397 56.984L14.3479 52.0994L9.51903 53.7739L11.2467 49.0935L6.20695 50.0152L8.66871 45.6545L3.54229 45.8007L6.67757 41.8669L1.59066 41.234L5.32226 37.824L0.400127 36.4277L4.63616 33.6255L0 31.5L4.63616 29.3745L0.400127 26.5723L5.32226 25.176L1.59066 21.766L6.67757 21.1331L3.54229 17.1993L8.66871 17.3455L6.20695 12.9848L11.2467 13.9065L9.51903 9.22614L14.3479 10.9006L13.397 6.01596L17.8962 8.40198L17.7453 3.43329L21.804 6.4721L22.4569 1.54172L25.9752 5.1585L27.4159 0.387817L30.3071 4.49351L32.5 0Z" fill="#FFCE2D"/>
</svg>
