<?xml version="1.0" encoding="UTF-8" standalone="no"?>
<!-- Created with Inkscape (http://www.inkscape.org/) -->

<svg
   version="1.1"
   id="svg2"
   width="2560"
   height="1440"
   viewBox="0 0 2560 1440"
   xmlns="http://www.w3.org/2000/svg"
   xmlns:svg="http://www.w3.org/2000/svg">
  <defs
     id="defs6">
    <clipPath
       clipPathUnits="userSpaceOnUse"
       id="clipPath16">
      <path
         d="M 0,1080 H 1920 V 0 H 0 Z"
         id="path14" />
    </clipPath>
    <clipPath
       clipPathUnits="userSpaceOnUse"
       id="clipPath24">
      <path
         d="M 455.746,659.101 H 1758.84 V 514.516 H 455.746 Z"
         id="path22" />
    </clipPath>
    <clipPath
       clipPathUnits="userSpaceOnUse"
       id="clipPath70">
      <path
         d="M 161.162,910.249 H 760.349 V 346.504 H 161.162 Z"
         id="path68" />
    </clipPath>
    <clipPath
       clipPathUnits="userSpaceOnUse"
       id="clipPath96">
      <path
         d="M 0,1080 H 1920 V 0 H 0 Z"
         id="path94" />
    </clipPath>
  </defs>
  <g
     id="g8"
     transform="matrix(1.3333333,0,0,-1.3333333,0,1440)">
    <g
       id="g10">
      <g
         id="g12"
         clip-path="url(#clipPath16)">
        <g
           id="g18">
          <g
             id="g20" />
          <g
             id="g62">
            <g
               clip-path="url(#clipPath24)"
               id="g60">
              <g
                 transform="translate(577.5089,520.1251)"
                 id="g28">
                <path
                   d="m 0,0 -0.604,-0.201 c -7.205,-1.739 -13.747,-3.073 -19.624,-4.005 -5.878,-0.932 -12.948,-1.403 -21.227,-1.403 -9.883,0 -19.523,1.301 -28.935,3.905 -9.414,2.603 -17.995,6.776 -25.737,12.511 -7.742,5.743 -13.956,13.224 -18.624,22.436 -4.677,9.211 -7.012,20.153 -7.012,32.84 0,11.881 1.974,22.428 5.912,31.64 3.938,9.21 9.514,16.851 16.718,22.931 7.213,6.071 15.685,10.647 25.434,13.72 9.749,3.065 20.43,4.602 32.042,4.602 11.479,0 25.3,-2.402 41.455,-7.205 l -3.006,-30.245 c -11.881,6.541 -24.032,9.815 -36.442,9.815 -6.55,0 -12.486,-1.099 -17.826,-3.307 -5.341,-2.201 -9.95,-5.374 -13.821,-9.506 -3.871,-4.139 -6.844,-8.984 -8.91,-14.526 -2.074,-5.534 -3.106,-11.512 -3.106,-17.919 0,-13.485 4.307,-24.2 12.923,-32.143 8.606,-7.943 19.858,-11.915 33.738,-11.915 5.743,0 11.587,0.663 17.524,2.006 5.945,1.327 11.714,3.066 17.322,5.207 z"
                   style="fill:#231f20;fill-opacity:1;fill-rule:nonzero;stroke:none"
                   id="path26" />
              </g>
              <g
                 transform="translate(629.577,569.7839)"
                 id="g32">
                <path
                   d="m 0,0 c 1.201,-5.34 3.099,-10.076 5.702,-14.216 2.603,-4.14 5.911,-7.405 9.916,-9.815 4.006,-2.402 8.741,-3.603 14.216,-3.603 5.475,0 10.245,1.201 14.317,3.603 4.072,2.41 7.38,5.675 9.916,9.815 2.536,4.14 4.409,8.876 5.61,14.216 1.2,5.34 1.797,11.017 1.797,17.02 0,6.281 -0.597,12.084 -1.797,17.424 -1.201,5.34 -3.074,10.084 -5.61,14.224 -2.536,4.131 -5.844,7.339 -9.916,9.614 -4.072,2.267 -8.842,3.401 -14.317,3.401 -5.475,0 -10.21,-1.134 -14.216,-3.401 C 11.613,56.007 8.305,52.799 5.702,48.668 3.099,44.528 1.201,39.784 0,34.444 -1.2,29.104 -1.805,23.301 -1.805,17.02 -1.805,11.017 -1.2,5.34 0,0 m -22.234,70.198 c 12.016,12.746 29.372,19.119 52.068,19.119 22.697,0 40.053,-6.373 52.069,-19.119 12.016,-12.755 18.028,-30.481 18.028,-53.178 0,-22.562 -6.046,-40.246 -18.129,-53.068 -12.083,-12.813 -29.406,-19.219 -51.968,-19.219 -22.562,0 -39.885,6.406 -51.968,19.219 -12.083,12.822 -18.12,30.506 -18.12,53.068 0,22.697 6.003,40.423 18.02,53.178"
                   style="fill:#231f20;fill-opacity:1;fill-rule:nonzero;stroke:none"
                   id="path30" />
              </g>
              <g
                 transform="translate(749.3328,656.6992)"
                 id="g36">
                <path
                   d="m 0,0 h 58.677 l 29.632,-92.919 h 0.403 L 119.755,0 h 56.469 v -139.781 h -36.443 l 0.605,107.336 h -0.403 L 104.33,-139.781 H 70.088 l -34.04,107.336 h -0.404 l 0.798,-107.336 H 0 Z"
                   style="fill:#231f20;fill-opacity:1;fill-rule:nonzero;stroke:none"
                   id="path34" />
              </g>
              <g
                 transform="translate(949.5878,656.6992)"
                 id="g40">
                <path
                   d="m 0,0 h 58.677 l 29.641,-92.919 h 0.403 L 119.755,0 h 56.477 V -139.781 H 139.79 l 0.604,107.336 h -0.402 L 104.339,-139.781 H 70.097 L 36.056,-32.445 h -0.403 l 0.806,-107.336 H 0 Z"
                   style="fill:#231f20;fill-opacity:1;fill-rule:nonzero;stroke:none"
                   id="path38" />
              </g>
              <g
                 transform="translate(1271.4207,569.985)"
                 id="g44">
                <path
                   d="m 0,0 c 0,-18.422 -5.474,-32.277 -16.424,-41.556 -10.95,-9.278 -25.912,-13.913 -44.856,-13.913 -18.96,0 -33.923,4.635 -44.872,13.913 -10.949,9.279 -16.408,23.134 -16.408,41.556 v 86.714 h 37.248 V 6.205 c 0,-4.937 0.353,-9.404 1.092,-13.409 0.739,-4.006 2.032,-7.582 3.913,-10.714 1.864,-3.141 4.367,-5.576 7.507,-7.314 3.14,-1.738 6.969,-2.603 11.52,-2.603 4.669,0 8.565,0.865 11.706,2.603 3.14,1.738 5.608,4.173 7.405,7.314 1.814,3.132 3.073,6.708 3.813,10.714 0.738,4.005 1.108,8.472 1.108,13.409 V 86.714 H 0 Z"
                   style="fill:#231f20;fill-opacity:1;fill-rule:nonzero;stroke:none"
                   id="path42" />
              </g>
              <g
                 transform="translate(1296.0403,656.6992)"
                 id="g48">
                <path
                   d="m 0,0 h 47.458 l 47.275,-94.926 h 0.386 L 94.531,0 h 34.041 V -139.781 H 82.305 L 33.453,-44.26 h -0.404 l 1.193,-95.521 H 0 Z"
                   style="fill:#231f20;fill-opacity:1;fill-rule:nonzero;stroke:none"
                   id="path46" />
              </g>
              <path
                 d="m 1453.043,656.699 h 37.249 V 516.918 h -37.249 z"
                 style="fill:#231f20;fill-opacity:1;fill-rule:nonzero;stroke:none"
                 id="path50" />
              <g
                 transform="translate(1542.1675,629.0651)"
                 id="g54">
                <path
                   d="M 0,0 H -34.444 V 27.634 H 71.692 V 0 H 37.248 V -112.147 H 0 Z"
                   style="fill:#231f20;fill-opacity:1;fill-rule:nonzero;stroke:none"
                   id="path52" />
              </g>
              <g
                 transform="translate(1670.3358,569.5826)"
                 id="g58">
                <path
                   d="M 0,0 -51.673,87.117 H -8.817 L 18.624,31.043 45.645,87.117 H 88.503 L 37.249,0 V -52.665 H 0 Z"
                   style="fill:#231f20;fill-opacity:1;fill-rule:nonzero;stroke:none"
                   id="path56" />
              </g>
            </g>
          </g>
        </g>
        <g
           id="g64">
          <g
             id="g66" />
          <g
             id="g78">
            <g
               clip-path="url(#clipPath70)"
               id="g76">
              <g
                 transform="translate(520.2759,827.0201)"
                 id="g74">
                <path
                   d="m 0,0 c -10.101,0 -18.288,8.195 -18.288,18.289 0,10.109 8.187,18.296 18.288,18.296 10.101,0 18.297,-8.187 18.297,-18.296 C 18.297,8.195 10.101,0 0,0 M -148.497,-438.305 H -252.76 v 168.448 h 104.263 z M 8.607,83.229 -240.073,-62.825 h 91.576 v -97.622 l -210.617,-109.41 h 64.143 v -168.448 h -33.184 v -20.631 h -29.708 v -21.58 h 209.366 42.009 0.21 v 417.691 h 224.471 v -80.433 c 6.576,2.099 13.562,3.225 20.808,3.225 7.473,0 14.652,-1.218 21.421,-3.443 v 80.651 h 79.651 z"
                   style="fill:#f6921e;fill-opacity:1;fill-rule:nonzero;stroke:none"
                   id="path72" />
              </g>
            </g>
          </g>
        </g>
      </g>
    </g>
    <g
       aria-label="LIVE WITH LOCALS"
       transform="matrix(1,0,0,-1,319.646,189.3789)"
       id="text82"
       style="font-weight:bold;font-size:86.0898px;font-family:'TradeGothic LT Bold';-inkscape-font-specification:TradeGothicLT-Bold;fill:#58595b">
      <path
         d="M 7.9027744,-62.759799 H 24.086648 v 50.527313 H 52.503007 V 0 H 7.9027744 Z"
         id="path100" />
      <path
         d="M 89.171543,-62.759799 H 105.35542 V 0 H 89.171543 Z"
         id="path102" />
      <path
         d="m 148.667,-62.759799 h 16.26795 l 16.64627,46.32371 16.60423,-46.32371 H 214.4534 L 191.20747,0 h -19.29454 z"
         id="path104" />
      <path
         d="m 247.06025,-62.759799 h 43.67543 v 12.232486 h -27.49156 v 11.686017 h 25.85216 v 12.232486 h -25.85216 v 14.376324 h 28.41636 V 0 h -44.60023 z"
         id="path106" />
      <path
         d="m 394.78933,-62.759799 h 15.51129 l 10.8453,45.609097 10.76122,-45.609097 h 15.59537 l 10.76123,45.609097 10.84529,-45.609097 h 15.38519 L 469.69754,0 h -18.664 L 439.64177,-47.710899 428.37612,0 h -18.664 z"
         id="path108" />
      <path
         d="m 514.88559,-62.759799 h 16.18388 V 0 h -16.18388 z"
         id="path110" />
      <path
         d="m 574.38105,-62.759799 h 57.84159 v 12.232486 H 611.4148 V 0 h -16.18387 v -50.527313 h -20.84988 z"
         id="path112" />
      <path
         d="m 667.95325,-62.759799 h 16.18387 v 23.918503 h 23.87647 v -23.918503 h 16.18387 V 0 H 708.01359 V -26.60881 H 684.13712 V 0 h -16.18387 z"
         id="path114" />
      <path
         d="m 830.57691,-62.759799 h 16.18387 v 50.527313 h 28.41636 V 0 h -44.60023 z"
         id="path116" />
      <path
         d="m 940.51422,-52.166718 q -7.39834,0 -11.47584,5.464684 -4.07749,5.464684 -4.07749,15.385189 0,9.878468 4.07749,15.343152 4.0775,5.464684 11.47584,5.464684 7.44038,0 11.51787,-5.464684 4.0775,-5.464684 4.0775,-15.343152 0,-9.920505 -4.0775,-15.385189 -4.07749,-5.464684 -11.51787,-5.464684 z m 0,-11.728054 q 15.13297,0 23.70832,8.659423 8.57536,8.659423 8.57536,23.918504 0,15.217044 -8.57536,23.876467 -8.57535,8.659423 -23.70832,8.659423 -15.09094,0 -23.70832,-8.659423 -8.57535,-8.659423 -8.57535,-23.876467 0,-15.259081 8.57535,-23.918504 8.61738,-8.659423 23.70832,-8.659423 z"
         id="path118" />
      <path
         d="m 1052.5271,-3.4469548 q -4.4558,2.3119819 -9.2899,3.48899083 -4.8342,1.17700897 -10.0887,1.17700897 -15.6794,0 -24.8433,-8.7434951 -9.16383,-8.7855309 -9.16383,-23.7923949 0,-15.048901 9.16383,-23.792396 9.1639,-8.785531 24.8433,-8.785531 5.2545,0 10.0887,1.177009 4.8341,1.177009 9.2899,3.488991 v 12.989134 q -4.4978,-3.06863 -8.8696,-4.497855 -4.3717,-1.429225 -9.2059,-1.429225 -8.6594,0 -13.6196,5.548756 -4.9603,5.548757 -4.9603,15.301117 0,9.710323 4.9603,15.25908 4.9602,5.548756 13.6196,5.548756 4.8342,0 9.2059,-1.429225 4.3718,-1.429225 8.8696,-4.497855 z"
         id="path120" />
      <path
         d="m 1131.7519,-11.433801 h -25.3056 L 1102.4528,0 h -16.2679 l 23.2459,-62.759799 h 19.2946 L 1151.9713,0 h -16.268 z m -21.2702,-11.643982 h 17.1928 l -8.5754,-24.969404 z"
         id="path122" />
      <path
         d="m 1184.5782,-62.759799 h 16.1839 v 50.527313 h 28.4163 V 0 h -44.6002 z"
         id="path124" />
      <path
         d="m 1309.5224,-60.784105 v 13.283386 q -5.1704,-2.311981 -10.0886,-3.48899 -4.9182,-1.177009 -9.29,-1.177009 -5.801,0 -8.5753,1.597369 -2.7744,1.597369 -2.7744,4.960252 0,2.522162 1.8496,3.951387 1.8916,1.387189 6.8098,2.396054 l 6.8939,1.387189 q 10.467,2.101802 14.8808,6.389477 4.4138,4.287676 4.4138,12.19045 0,10.3829008 -6.1793,15.4692609 -6.1373,5.0443241 -18.7901,5.0443241 -5.9692,0 -11.9803,-1.13497293 -6.0112,-1.13497297 -12.0223,-3.36288277 V -16.940522 q 6.0111,3.194739 11.6019,4.834144 5.6329,1.597369 10.8453,1.597369 5.2966,0 8.113,-1.765513 2.8164,-1.765513 2.8164,-5.044324 0,-2.942522 -1.9337,-4.539892 -1.8916,-1.597369 -7.6085,-2.85845 l -6.2634,-1.387189 q -9.416,-2.01773 -13.7878,-6.431513 -4.3297,-4.413784 -4.3297,-11.896198 0,-9.374036 6.0532,-14.41836 6.0532,-5.044324 17.4029,-5.044324 5.1705,0 10.6351,0.798685 5.4647,0.756648 11.3077,2.311982 z"
         id="path126" />
    </g>
    <path
       d="M 1754.361,297.247 H 161.162 v 6.331 h 1593.199 z"
       style="fill:#6d6e70;fill-opacity:1;fill-rule:nonzero;stroke:none"
       id="path84" />
    <g
       aria-label="HOMESTAY NETWORK"
       transform="matrix(0.81538952,0,0,-1,455.7427,346.5049)"
       id="text88"
       style="font-size:157.557px;font-family:Corbel;-inkscape-font-specification:Corbel;fill:#231f20">
      <path
         d="m 15.463359,-114.85967 h 15.54029 v 47.082461 H 87.471834 V -114.85967 H 103.01213 V 0 H 87.471834 V -54.698746 H 31.003649 V 0 h -15.54029 z"
         id="path129" />
      <path
         d="m 170.48317,-104.31997 q -16.92507,0 -26.92624,12.616868 -9.92425,12.61687 -9.92425,34.388663 0,21.694862 9.92425,34.311731 10.00117,12.61687 26.92624,12.61687 16.92507,0 26.77238,-12.61687 9.92425,-12.616869 9.92425,-34.311731 0,-21.771793 -9.92425,-34.388663 -9.84731,-12.616868 -26.77238,-12.616868 z m 0,-12.61687 q 24.15669,0 38.61993,16.23268 14.46324,16.155747 14.46324,43.389721 0,27.157043 -14.46324,43.389723 -14.46324,16.1557478 -38.61993,16.1557478 -24.23362,0 -38.77379,-16.1557478 -14.46324,-16.155748 -14.46324,-43.389723 0,-27.233974 14.46324,-43.389721 14.54017,-16.23268 38.77379,-16.23268 z"
         id="path131" />
      <path
         d="m 242.18731,-114.85967 h 23.15657 l 29.31115,78.163043 29.465,-78.163043 H 347.2766 V 0 H 332.12097 V -100.85803 L 302.5021,-22.079522 H 286.88488 L 257.26601,-100.85803 V 0 h -15.0787 z"
         id="path133" />
      <path
         d="m 375.00752,-114.85967 h 72.62393 v 13.07846 h -57.08364 v 34.004001 h 54.69874 v 13.078463 h -54.69874 v 41.620284 h 58.46842 V 0 h -74.00871 z"
         id="path135" />
      <path
         d="m 533.98415,-111.09 v 15.155631 q -8.84719,-4.231271 -16.69427,-6.308431 -7.84708,-2.07717 -15.15563,-2.07717 -12.6938,0 -19.6177,4.923655 -6.84695,4.923657 -6.84695,14.001648 0,7.616281 4.53899,11.53982 4.61593,3.846607 17.38666,6.231503 l 9.38572,1.923303 q 17.38666,3.308082 25.6184,11.693684 8.30867,8.30867 8.30867,22.310319 0,16.694272 -11.23209,25.310671 -11.15516,8.6163988 -32.77309,8.6163988 -8.1548,0 -17.38666,-1.84637114 -9.15492,-1.84637116 -19.00223,-5.46218136 V -21.079404 q 9.46265,5.308317 18.54064,8.000942 9.07799,2.692624 17.84825,2.692624 13.30926,0 20.54088,-5.231385 7.23162,-5.231385 7.23162,-14.924834 0,-8.462534 -5.23138,-13.232326 -5.15445,-4.769792 -17.002,-7.154689 l -9.46266,-1.846371 q -17.38666,-3.461946 -25.1568,-10.84743 -7.77015,-7.385485 -7.77015,-20.54088 0,-15.232562 10.69357,-24.002827 10.7705,-8.77026 29.61887,-8.77026 8.07787,0 16.46348,1.46171 8.3856,1.46171 17.15586,4.38513 z"
         id="path137" />
      <path
         d="m 539.48488,-114.85967 h 97.16528 v 13.07846 H 595.87613 V 0 h -15.61722 v -101.78121 h -40.77403 z"
         id="path139" />
      <path
         d="m 676.10652,-99.550179 -21.0794,57.160574 h 42.23574 z m -8.77026,-15.309491 h 17.61746 L 728.7281,0 H 712.57235 L 702.10958,-29.465007 H 650.33426 L 639.87149,0 h -16.38655 z"
         id="path141" />
      <path
         d="m 716.11787,-114.85967 h 16.69427 l 31.84991,47.236326 31.6191,-47.236326 h 16.69427 l -40.62016,60.160924 V 0 h -15.61722 v -54.698746 z"
         id="path143" />
      <path
         d="m 863.6063,-114.85967 h 20.92554 l 50.92907,96.08823 v -96.08823 h 15.0787 V 0 H 929.61407 L 878.685,-96.088233 V 0 h -15.0787 z"
         id="path145" />
      <path
         d="m 976.57438,-114.85967 h 72.62392 v 13.07846 h -57.08363 v 34.004001 h 54.69873 v 13.078463 h -54.69873 v 41.620284 h 58.46843 V 0 h -74.00872 z"
         id="path147" />
      <path
         d="m 1050.7718,-114.85967 h 97.1653 v 13.07846 h -40.774 V 0 h -15.6173 v -101.78121 h -40.774 z"
         id="path149" />
      <path
         d="m 1147.2173,-114.85967 h 15.6942 l 24.1567,97.088347 24.0797,-97.088347 h 17.4636 l 24.1567,97.088347 24.0798,-97.088347 h 15.7711 L 1263.7695,0 h -19.5407 L 1219.9951,-99.704043 1195.5307,0 H 1175.99 Z"
         id="path151" />
      <path
         d="m 1346.3439,-104.31997 q -16.9251,0 -26.9263,12.616868 -9.9242,12.61687 -9.9242,34.388663 0,21.694862 9.9242,34.311731 10.0012,12.61687 26.9263,12.61687 16.925,0 26.7724,-12.61687 9.9242,-12.616869 9.9242,-34.311731 0,-21.771793 -9.9242,-34.388663 -9.8474,-12.616868 -26.7724,-12.616868 z m 0,-12.61687 q 24.1567,0 38.6199,16.23268 14.4632,16.155747 14.4632,43.389721 0,27.157043 -14.4632,43.389723 -14.4632,16.1557478 -38.6199,16.1557478 -24.2336,0 -38.7738,-16.1557478 -14.4633,-16.155748 -14.4633,-43.389723 0,-27.233974 14.4633,-43.389721 14.5402,-16.23268 38.7738,-16.23268 z"
         id="path153" />
      <path
         d="m 1472.5159,-53.852493 q 5.0006,1.692507 9.6935,7.231621 4.7697,5.539113 9.5395,15.232562 L 1507.52,0 h -16.6942 l -14.6941,-29.465007 q -5.693,-11.539819 -11.0782,-15.309494 -5.3083,-3.769674 -14.5402,-3.769674 h -16.9251 V 0 h -15.5402 v -114.85967 h 35.081 q 19.6946,0 29.3881,8.23173 9.6934,8.231743 9.6934,24.849083 0,10.847431 -5.0775,18.002119 -5.0006,7.154689 -14.6171,9.924245 z m -38.9277,-48.236447 v 40.774031 h 19.5408 q 11.2321,0 16.9251,-5.154453 5.7699,-5.231385 5.7699,-15.309495 0,-10.078109 -5.7699,-15.15563 -5.693,-5.154453 -16.9251,-5.154453 z"
         id="path155" />
      <path
         d="m 1514.6301,-114.85967 h 15.5403 v 48.544172 l 51.5445,-48.544172 h 20.0024 L 1544.7106,-61.314909 1605.7947,0 h -20.464 l -55.1603,-55.314203 V 0 h -15.5403 z"
         id="path157" />
    </g>
    <g
       id="g90">
      <g
         id="g92"
         clip-path="url(#clipPath96)">
        <path
           d="M 1920,0 H 0 v 1080 h 1920 z"
           style="fill:none;stroke:#ffffff;stroke-width:1;stroke-linecap:butt;stroke-linejoin:miter;stroke-miterlimit:10;stroke-dasharray:none;stroke-opacity:1"
           id="path98" />
      </g>
    </g>
  </g>
</svg>
