<?xml version="1.0" encoding="utf-8"?>
<!-- Generator: Adobe Illustrator 26.5.0, SVG Export Plug-In . SVG Version: 6.00 Build 0)  -->
<svg version="1.1" id="Layer_1" xmlns="http://www.w3.org/2000/svg" xmlns:xlink="http://www.w3.org/1999/xlink" x="0px" y="0px"
	 width="1296px" height="415.5px" viewBox="0 0 1296 415.5" enable-background="new 0 0 1296 415.5" xml:space="preserve">
<g>
	<path fill="#125F31" d="M84.431,258.422c4.092-11.414,10.622-21.408,18.055-30.863c2.548-3.241,5.807-5.666,9.331-7.794
		c3.118-1.883,5.752-4.348,7.388-7.668c0.963-1.954,0.23-3.22-1.942-3.603c-2.242-0.395-4.298,0.051-6.123,1.413
		c-2.111,1.576-4.357,3.017-6.264,4.814c-18.489,17.424-37.304,34.508-55.051,52.706c-5.238,5.371-5.404,5.597-2.132,12.487
		c2.153,4.532,4.68,8.912,7.347,13.167c2.35,3.749,3.432,3.954,6.824,1.192c5.76-4.691,11.285-9.67,16.93-14.502
		c4.369-3.74,8.771-7.441,13.158-11.16c0.38,0.33,0.76,0.661,1.14,0.991c-10.869,17.268-22.605,33.932-35.194,49.983
		c-3.862,4.924-5.245,4.738-9.366-0.039c-9.514-11.03-16.346-23.833-21.673-37.105c-9.437-23.508-14.863-48.056-14.99-73.625
		C11.479,130.306,59.086,58.992,132.056,29.869c49.126-19.607,98.369-19.001,147.117,1.496c34.933,14.688,62.845,37.99,84.11,69.522
		c19.866,29.457,30.417,61.897,32.235,97.119c1.454,28.167-3.566,55.433-14.259,81.583c-3.088,7.551-6.543,14.941-10.54,22.063
		c-1.641,2.924-3.166,5.959-6.172,7.813c-0.01-1.204-0.316-2.307-1.104-3.245c-0.379-0.558-0.758-1.117-1.136-1.675
		c-1.131-2.761-3.401-4.616-5.391-6.673c-2.092-2.162-2.672-4.432-1.135-7.148c0.826-1.46,1.515-2.998,2.258-4.504
		c22.671-45.952,24.922-93.243,7.231-140.975C340.235,77.705,274.7,32.113,199.879,34.685
		c-62.286,2.141-110.655,30.76-143.489,83.813c-20.467,33.071-28.26,69.506-23.231,108.355c0.26,2.01-0.26,4.433,2.107,5.779
		c2.696-0.764,3.358-3.296,4.529-5.285c4.016-6.824,7.887-13.733,11.862-20.582c5.904-10.172,6.681-10.252,15.651-2.183
		c4.816,4.332,9.579,8.734,14.579,12.845c4.051,3.33,5.567,3.349,9.531,0.268c3.783-2.939,7.298-6.225,10.89-9.404
		c1.913-1.693,2.976-3.762,2.286-6.406c-1.616-6.186,0.714-10.964,4.528-15.827c2.648-3.377,4.885-3.901,8.507-2.405
		c2.869,1.185,5.911,2.096,9.107,1.77c2.975-0.304,3.829-1.874,2.279-4.358c-1.01-1.618-2.401-2.994-3.509-4.558
		c-2.925-4.126-4.581-8.962-2.77-13.615c3.357-8.624,2.402-17.934,5.288-26.646c2.976-8.981,8.673-15.844,14.79-22.579
		c1.162-1.279,2.9-1.551,4.531-2.019c9.263-2.657,18.523-4.64,28.065-1.267c3.234,1.143,5.564-0.073,7.099-3.088
		c1.085-2.13,2.043-4.387,3.478-6.266c5.151-6.745,14.609-6.091,18.289,1.554c1.729,3.592,3.925,6.859,6.419,10.319
		c-2.549,1.141-5.519,0.33-6.488,2.403c-1.709,3.657-4.674,5.99-7.463,8.581c-2.209,2.053-1.993,4.157-0.096,6.284
		c1.767,1.981,3.407,4.07,4.274,6.608c2.063,6.038,6.458,10.003,11.704,13.144c3.522,2.109,6.903,4.329,9.602,7.477
		c3.548,4.14,7.765,7.059,13.41,7.61c1.546,0.151,3.139,0.405,3.833,2.576c2.477,7.753,7.534,12.941,15.669,14.869
		c4.477,1.061,8.482,3.287,12.505,5.442c2.76,1.479,5.607,2.737,8.777,3.057c3.397,0.343,5.951-0.871,5.912-4.518
		c-0.045-4.185,2.125-7.276,4.116-10.52c3.013-4.91,8.827-6.643,14.313-4.36c4.337,1.804,5.871,5.552,4.652,11.484
		c-0.192,0.934-0.604,1.82-0.845,2.746c-0.953,3.659,1.434,8.744,4.83,8.726c6.106-0.032,10.555,3.386,15.753,5.487
		c7.057,2.854,9.141,7.97,10.243,14.255c1.475,8.412,0.493,16.778-1.996,24.839c-1.098,3.555-1.744,7.046-1.294,10.577
		c1.306,10.239,3.237,20.377,6.713,30.137c0.715,2.006,1.559,4.26,3.046,5.646c6.85,6.385,11.742,14.602,19.223,20.366
		c0.479,0.435,0.956,0.874,1.433,1.313c0.698,0.759,1.395,1.517,2.093,2.276c-4.738,10.969-12.31,19.997-20.241,28.657
		c-27.547,30.081-62.161,47.53-101.572,56.338c-4.546,1.016-7.797,0.139-10.666-3.616c-4.805-6.289-9.888-12.367-14.924-18.477
		c-5.024-6.096-6.137-5.91-9.492,1.499c-2.871,6.338-5.76,12.669-8.482,19.071c-1.744,4.102-4.642,5.753-9.05,5.445
		c-17.526-1.226-34.748-4.034-51.392-9.796c-5.006-1.733-4.977-1.941-3.986-7.37c2.37-12.987,4.683-25.959,3.971-39.279
		c-0.249-4.658-0.748-8.963-3.882-12.759c-3.369-4.081-3.245-9.184-1.96-13.782c4.01-14.348-2.225-26.827-6.54-39.692
		c-0.096-0.286-0.769-0.377-1.508-0.711c-1.464,2.645-0.93,5.544-0.943,8.287c-0.134,28.792-0.158,57.585-0.336,86.377
		c-0.02,3.238,1.453,7.511-1.646,9.462c-3.571,2.248-6.677-1.44-9.572-3.2c-16.246-9.876-30.663-22.119-44.533-35.04
		c-2.457-2.289-4.962-4.529-7.36-6.877c-1.607-1.573-1.704-3.234-0.124-5.05c7.717-8.868,15.297-17.857,23.103-26.646
		c2.485-2.798,3.677-2.374,4.955,1.063c0.895,2.405,1.069,5.102,2.617,7.286c1.446-0.746,1.032-1.785,0.837-2.585
		c-2.455-10.068-0.659-19.474,4.076-28.541c2.886-5.526,5.537-11.18,8.149-16.843c1.613-3.499,2.824-7.161,2.585-11.111
		c-0.28-4.624-2.11-5.675-5.931-3.074c-3.762,2.561-7.239,5.536-10.88,8.278c-1.336,1.006-2.782,1.865-4.178,2.791
		C85.283,259.149,84.857,258.786,84.431,258.422z M183.151,175.524c-0.499,0.446-0.998,0.891-1.498,1.337
		c-3.324,1.49-5.954,3.963-8.714,6.231c-6.459,5.308-12.912,10.626-19.264,16.061c-3.34,2.858-6.789,4.392-11.124,2.414
		c-0.843-0.385-1.832-0.637-2.578,0.43c-0.43,1.798,0.725,3.171,1.513,4.589c12.661,22.752,25.349,45.49,38.074,68.206
		c0.924,1.65,2.183,3.112,3.288,4.661c0.564,0.893,1.128,1.785,1.692,2.678l0.424,0.156l-0.098-0.462
		c-0.392-1.03-0.783-2.061-1.175-3.091c-0.624-3.097-2.21-5.799-3.589-8.574c-5.641-11.347-11.033-22.834-17.123-33.937
		c-3.333-6.075-3.541-11.433-0.489-17.582c6.781-13.66,13.174-27.513,19.712-41.298c0.293-0.634,0.585-1.267,0.877-1.899
		C183.079,175.445,183.151,175.524,183.151,175.524z M226.323,221.532l0.137,0.258l-0.106-0.214l-0.287-0.413
		C226.067,221.163,226.323,221.53,226.323,221.532z M66.508,210.069l-0.311-0.265l0.334,0.254c0.986,1.629,1.376,3.337,0.68,5.186
		c-0.367,0.335-0.734,0.67-1.101,1.005c-1.19-0.119-2.377-0.305-3.569-0.34c-1.241-0.036-2.576,0.215-2.731,1.681
		c-0.185,1.752,1.236,1.677,2.44,1.63c4.815-0.19,8.656,2.391,12.724,4.383c2.415,1.182,4.689,3.123,9.526,2.029
		C77.392,220.326,73.257,213.834,66.508,210.069z M338.68,305.069l-0.075,0.095c-0.441-4.282-2.88-7.58-5.547-10.653
		c-5.064-5.836-9.293-12.124-12.059-19.398c-1.881-4.947-4.558-9.508-7.971-13.579c-2-2.385-4.076-4.733-7.211-5.729
		c-6.389-2.03-12.754-4.139-19.168-6.085c-2.255-0.684-4.866-1.564-6.456,1.115c-1.339,2.256-1.04,4.852,0.639,6.747
		c5.055,5.704,9.687,11.969,17.67,14.094c10.326,2.75,18.419,8.845,25.245,16.927C328.526,294.262,332.973,300.244,338.68,305.069z
		 M284.686,234.347c1.851,0,4.747,0.211,7.599-0.049c4.436-0.403,5.304-1.551,3.458-5.504c-3.257-6.976-5.648-14.269-8.39-21.429
		c-1.122-2.929-3.041-3.891-5.834-4.476c-13.01-2.726-25.449-6.835-36.083-15.265c-1.85-1.467-4.107-2.447-6.242-3.522
		c-4.741-2.388-9.35-4.811-11.531-10.178c-1.141-2.809-3.81-4.251-6.347-5.616c-11.678-6.283-22.434-13.771-31.283-23.766
		c-2.032-2.295-3.984-2.202-6.141-0.161c-3.736,3.534-4.492,8.074-2.035,13.181c1.425,2.962,2.975,5.605,7.094,3.887
		c2.435-1.015,4.79-0.267,6.706,1.409c9.702,8.486,20.297,16.137,23.62,29.849c2.507,10.345,8.051,18.82,17.418,24.578
		c4.577,2.814,4.566,3.212,7.566-1.29c1.883-2.825,3.39-3.054,5.381-0.354c0.997,1.352,2.036,2.673,3.034,4.023
		c3.709,5.016,7.386,10.056,11.126,15.049c1.315,1.756,2.834,3.753,5.288,1.913C273.593,233.25,278.667,234.196,284.686,234.347z
		 M178.296,167.588c0.144-1.945-4.443-8.622-6.419-9.077c-0.851-0.196-2.033-0.14-2.717,0.32c-3.78,2.539-7.374,5.397-9.609,9.439
		c-2.018,3.649,1.346,5.618,3.117,7.966c1.714,2.273,3.732,1.551,5.642,0.189c2.72-1.94,5.429-3.897,8.098-5.906
		C177.364,169.798,178.11,168.851,178.296,167.588z M222.318,215.328c0.638-0.287,1.276-0.574,1.915-0.861
		c-3.976-11.362-8.455-22.511-15.487-32.481c-1.215-1.722-2.962-3.101-4.589-4.49c-1.02-0.871-2.269-2.172-3.67-0.745
		c-0.966,0.983-0.38,2.294,0.235,3.303C207.899,191.825,215.113,203.574,222.318,215.328z M93.198,317.063l-0.241,0.375l0.379,0.063
		L93.198,317.063z"/>
	<g>
		<path fill="#125F31" d="M1067.437,273.288c-1.583,1.692-3.614,1.138-5.441,1.14c-11.756,0.015-23.516-0.244-35.268-0.013
			c-5.413,0.106-9.614-1.635-13.64-5.163c-18.403-16.129-37.115-31.908-55.391-48.178c-5.05-4.496-10.221-6.732-16.872-6.109
			c-3.091,0.289-6.235,0.117-9.35,0.006c-3.399-0.121-5.353-1.866-5.365-5.403c-0.025-7.437,0.031-14.874-0.046-22.31
			c-0.039-3.709,1.972-5.133,5.34-5.255c2.637-0.095,5.275-0.208,7.913-0.214c18.234-0.046,36.469-0.063,54.703-0.096
			c5.786-0.01,11.526-0.421,16.977-2.572c10.925-4.312,16.962-12.198,17.215-24.104c0.153-7.195,0.233-14.398,0.073-21.591
			c-0.13-5.782-1.582-7.178-7.243-7.658c-2.385-0.202-4.795-0.149-7.193-0.15c-29.511-0.012-59.023-0.013-88.534-0.017
			c-0.72,0-1.44-0.007-2.159,0.003c-8.959,0.125-9.827,0.868-9.84,9.974c-0.059,41.028-0.029,82.056-0.051,123.085
			c-0.002,3.357-0.059,6.72-0.265,10.069c-0.207,3.37-2.125,5.35-5.52,5.429c-7.433,0.173-14.87,0.211-22.306,0.253
			c-3.535,0.02-5.243-1.896-5.344-5.358c-0.049-1.678-0.139-3.357-0.139-5.035c-0.019-49.905-0.071-99.81-0.019-149.714
			c0.017-16.602,5.883-22.505,22.59-22.549c38.388-0.1,76.777-0.034,115.165,0.015c3.109,0.004,6.216,0.43,9.328,0.597
			c20.58,1.102,34.427,17.056,35.67,37.447c0.611,10.035,0.533,20.175-0.109,30.212c-1.731,27.069-20.622,47.748-48.29,53.54
			c-2.343,0.491-4.722,0.882-7,1.592c-1.755,0.547-2.073,1.98-0.852,3.34c1.274,1.418,2.756,2.659,4.207,3.907
			c17.805,15.314,35.637,30.598,53.406,45.953C1065.314,269.678,1067.507,270.7,1067.437,273.288z"/>
		<path fill="#125F31" d="M635.347,273.331c-1.7,1.827-3.988,1.078-6.023,1.085c-11.515,0.038-23.034-0.249-34.542,0.005
			c-5.438,0.12-9.607-1.705-13.616-5.212c-18.415-16.11-37.112-31.9-55.407-48.144c-5.039-4.474-10.222-6.74-16.881-6.104
			c-3.088,0.295-6.234,0.116-9.347-0.013c-3.085-0.128-5.013-1.83-5.058-4.951c-0.11-7.672-0.089-15.347,0.009-23.02
			c0.04-3.147,1.921-4.78,5.026-4.95c2.154-0.118,4.313-0.201,6.471-0.206c18.712-0.045,37.423-0.07,56.135-0.1
			c5.783-0.009,11.526-0.401,17.019-2.379c9.886-3.56,15.903-10.358,17.303-20.961c1.041-7.884,1.02-15.806,0.565-23.708
			c-0.365-6.348-2.678-8.492-8.976-8.899c-3.346-0.216-6.714-0.127-10.072-0.129c-27.588-0.015-55.176-0.02-82.763-0.028
			c-1.439,0-2.879-0.022-4.318,0.001c-8.704,0.135-9.576,0.882-9.628,9.427c-0.088,14.393-0.021,28.787-0.019,43.181
			c0.004,26.388,0.009,52.777,0.008,79.165c0,2.639,0.018,5.279-0.069,7.916c-0.258,7.809-1.176,8.794-8.744,9.004
			c-5.515,0.153-11.035,0.218-16.551,0.17c-6.862-0.06-7.655-0.919-7.9-8.023c-0.074-2.157-0.049-4.318-0.049-6.477
			c-0.005-48.218-0.007-96.437-0.009-144.655c0-1.199-0.01-2.399,0.014-3.598c0.26-12.945,6.349-19.49,19.466-19.881
			c13.903-0.414,27.824-0.235,41.738-0.238c24.229-0.004,48.458,0.028,72.687,0.105c4.071,0.013,8.146,0.258,12.211,0.516
			c20.969,1.327,34.132,16.381,36.035,36.401c1.019,10.725,1.012,21.612-0.174,32.341c-3.054,27.637-20.502,46.609-47.686,52.566
			c-2.956,0.648-7.494-0.05-8.323,2.918c-1.012,3.624,3.629,5.113,6.016,7.196c17.703,15.445,35.816,30.417,53.155,46.282
			C634.078,270.873,635.563,271.445,635.347,273.331z"/>
		<path fill="#125F31" d="M1274.536,187.976c0,23.754,0.005,47.508-0.007,71.262c-0.001,2.878,0.058,5.769-0.177,8.633
			c-0.383,4.678-1.577,6.089-6.127,6.278c-7.427,0.308-14.874,0.379-22.307,0.241c-4.711-0.087-5.674-1.238-5.934-6.198
			c-0.188-3.59-0.068-7.196-0.061-10.795c0.012-6.238,0.086-12.477,0.056-18.715c-0.04-8.345-0.453-8.766-9.091-8.918
			c-5.517-0.097-11.037-0.039-16.555-0.041c-24.953-0.013-49.907-0.024-74.86-0.031c-2.159-0.001-4.323-0.062-6.477,0.058
			c-6.087,0.338-7.172,1.227-7.31,7.28c-0.213,9.353-0.019,18.715-0.143,28.071c-0.109,8.294-0.912,9.056-9.123,9.211
			c-6.237,0.118-12.479,0.268-18.713,0.121c-5.309-0.124-6.102-1.08-6.504-6.424c-0.09-1.194-0.074-2.398-0.073-3.597
			c0.03-28.073-0.052-56.146,0.133-84.218c0.166-25.234,9.153-46.933,27.57-64.267c14.228-13.392,31.43-20.84,50.842-23.12
			c6.201-0.728,12.425-1.054,18.673-1.041c20.395,0.043,40.79,0.036,61.184,0.051c1.439,0.001,2.88-0.006,4.319,0.029
			c15.127,0.373,20.681,6.006,20.715,21.27c0.056,24.953,0.015,49.907,0.015,74.86
			C1274.566,187.976,1274.551,187.976,1274.536,187.976z M1182.818,196.495c0-0.056,0-0.111,0-0.167
			c16.305,0,32.61,0.069,48.914-0.032c7.042-0.044,8.04-1.05,8.084-7.87c0.119-18.462,0.179-36.925,0.13-55.388
			c-0.016-6.155-0.741-7.177-6.309-7.241c-19.175-0.219-38.463-1.567-57.504,0.496c-28.31,3.067-44.672,19.211-49.453,43.665
			c-1.158,5.922-1.117,11.931-0.939,17.924c0.232,7.836,0.951,8.56,8.884,8.593C1150.688,196.541,1166.753,196.495,1182.818,196.495
			z"/>
		<path fill="#125F31" d="M842.159,188.177c0,24.465,0.003,48.931-0.004,73.396c-0.001,2.158,0.071,4.329-0.125,6.472
			c-0.42,4.586-1.629,5.947-6.249,6.135c-6.947,0.283-13.91,0.342-20.862,0.244c-5.11-0.072-6.364-1.225-6.498-6.477
			c-0.214-8.389-0.026-16.788-0.008-25.182c0.006-2.638,0.024-5.277,0.018-7.915c-0.006-3.199-1.568-4.891-4.819-4.947
			c-2.158-0.037-4.315-0.152-6.473-0.154c-31.181-0.024-62.363-0.036-93.544-0.046c-1.439,0-2.884-0.034-4.315,0.084
			c-5.088,0.418-6.244,1.391-6.386,6.663c-0.226,8.389-0.09,16.788-0.135,25.183c-0.013,2.397-0.048,4.799-0.208,7.19
			c-0.229,3.414-2.178,5.292-5.558,5.361c-7.432,0.15-14.866,0.202-22.3,0.201c-3.195,0-4.776-1.84-4.948-4.962
			c-0.066-1.197-0.136-2.395-0.136-3.593c0.02-29.023-0.451-58.057,0.217-87.064c0.676-29.37,13.004-53.256,37.072-70.497
			c12.312-8.82,26.29-13.727,41.358-15.403c8.11-0.902,16.242-1.252,24.412-1.202c18.708,0.115,37.418-0.026,56.127,0.042
			c18.115,0.066,23.501,5.607,23.485,23.794c-0.022,24.226-0.005,48.451-0.005,72.676
			C842.236,188.177,842.198,188.177,842.159,188.177z M749.763,196.47c0-0.184,0-0.367,0-0.551c2.157,0,4.314,0.003,6.471,0
			c14.382-0.026,28.764,0.043,43.144-0.122c7.043-0.08,8.608-1.371,8.69-7.603c0.245-18.454,0.32-36.912,0.248-55.368
			c-0.022-5.729-1.124-6.927-6.756-6.999c-19.17-0.246-38.393-1.148-57.501,0.394c-25.515,2.06-44.228,18.181-49.331,41.318
			c-1.499,6.799-2.119,13.738-1.814,20.721c0.316,7.219,1.234,8.16,8.673,8.189C717.647,196.513,733.705,196.47,749.763,196.47z"/>
		<path fill="#F2A135" d="M791.611,312.183c-1.788-1.633-3.485-3.421-5.811-4.127c-7.978-2.425-16.023-2.78-23.99,0.024
			c-1.54,0.542-2.999,1.558-4.248,2.64c-8.327,7.213-8.1,26.685,0.183,33.865c4.673,4.051,10.255,3.329,13.121,3.502
			c8.619,0.265,14.265-0.061,19.401-4.407C797.201,337.812,797.34,317.415,791.611,312.183z M784.07,338.045
			c-3.388,2.867-7.112,3.082-12.796,2.907c-1.89-0.114-5.572,0.362-8.654-2.31c-5.463-4.736-5.613-17.579-0.12-22.336
			c0.824-0.714,1.786-1.384,2.802-1.741c5.255-1.85,10.561-1.615,15.823-0.016c1.534,0.466,2.653,1.645,3.832,2.722
			C788.735,320.723,788.643,334.175,784.07,338.045z"/>
		<path fill="#F2A135" d="M1044.766,307.407c3.832,0,7.676-0.196,11.493,0.043c6.693,0.42,9.904,3.746,10.375,10.457
			c0.465,6.64-0.981,12.428-7.458,15.812c-2.736,1.429-2.54,3.162-0.503,5.031c1.94,1.781,3.947,3.488,5.888,5.267
			c0.706,0.647,1.302,1.435,1.013,2.494c-0.318,1.167-1.372,1.226-2.296,1.309c-3.667,0.326-7.131,0.042-10.045-2.704
			c-2.437-2.296-5.066-4.393-7.662-6.514c-1.66-1.357-3.256-2.935-5.486-3.275c-3.418-0.522-5.325-2.312-4.676-5.84
			c0.661-3.588,3.799-3.049,6.333-3.194c2.627-0.151,5.27-0.013,7.901-0.122c1.421-0.059,2.937-0.106,4.223-0.624
			c2.608-1.05,3.246-3.305,2.88-5.921c-0.333-2.386-2.036-3.105-4.107-3.154c-3.83-0.091-7.668-0.217-11.492-0.065
			c-5.109,0.203-6.15,1.249-6.359,6.566c-0.217,5.502-0.127,11.016-0.211,16.524c-0.025,1.673-0.095,3.355-0.302,5.013
			c-0.287,2.299-1.844,3.178-4.011,3.257c-2.123,0.077-3.887-0.591-4.451-2.776c-0.412-1.598-0.523-3.308-0.536-4.97
			c-0.064-7.904-0.146-15.809-0.033-23.711c0.11-7.645,1.343-8.832,8.743-8.975c3.591-0.069,7.185-0.012,10.778-0.012
			C1044.766,307.351,1044.766,307.379,1044.766,307.407z"/>
		<path fill="#F2A135" d="M878.755,336.277c1.499,3.141,5.019,4.652,7.362,7.275c0.769,0.861,1.914,1.655,1.317,3.032
			c-0.577,1.331-1.95,1.199-3.103,1.286c-3.195,0.243-6.06-0.359-8.715-2.475c-4.989-3.977-9.082-9.209-15.755-10.911
			c-2.167-0.553-1.982-3.022-1.796-4.957c0.195-2.035,1.626-2.894,3.433-3.009c3.104-0.199,6.221-0.177,9.329-0.321
			c1.667-0.077,3.412-0.035,4.972-0.526c2.569-0.808,3.763-2.882,3.652-5.541c-0.138-3.281-2.588-3.652-5.102-3.696
			c-3.831-0.068-7.672-0.199-11.494-0.003c-4.858,0.25-5.66,1.135-5.826,6.193c-0.189,5.737-0.153,11.481-0.281,17.22
			c-0.037,1.668-0.148,3.363-0.495,4.987c-0.478,2.235-2.162,2.985-4.312,2.918c-2.245-0.07-3.681-1.156-3.806-3.429
			c-0.197-3.583-0.266-7.176-0.288-10.765c-0.039-6.228-0.126-12.459,0.042-18.682c0.162-6.02,1.362-7.321,7.122-7.469
			c7.66-0.196,15.334-0.262,22.992-0.046c6.92,0.195,10.427,3.903,10.738,10.861c0.285,6.373-1.395,11.877-7.32,15.311
			C880.389,334.126,879.271,334.612,878.755,336.277z"/>
		<path fill="#F2A135" d="M518.505,335.395c2.47,4.085,5.935,5.665,8.183,8.449c1.774,2.197,1.332,3.579-1.367,3.912
			c-3.38,0.416-6.568,0.148-9.49-2.182c-4.993-3.983-9.062-9.257-15.726-10.994c-2.259-0.589-1.924-3.041-1.748-4.952
			c0.185-2.002,1.559-2.959,3.381-3.093c2.863-0.212,5.743-0.186,8.613-0.32c1.909-0.089,3.885-0.009,5.701-0.493
			c2.667-0.711,3.714-2.799,3.529-5.516c-0.186-2.734-1.948-3.681-4.367-3.72c-4.312-0.069-8.625-0.044-12.937-0.068
			c-3.606-0.02-5.181,1.865-5.199,5.362c-0.028,5.511-0.119,11.022-0.195,16.533c-0.016,1.198-0.019,2.401-0.132,3.592
			c-0.431,4.547-1.574,5.985-4.663,5.836c-4.249-0.205-3.997-3.446-4.018-6.288c-0.065-8.867-0.145-17.738,0.047-26.601
			c0.124-5.721,1.71-7.303,7.331-7.445c7.665-0.193,15.342-0.244,23.005-0.033c6.689,0.184,10.048,3.703,10.316,10.372
			C529.085,325.569,526.104,331.684,518.505,335.395z"/>
		<path fill="#F2A135" d="M1161.36,325.196c0-3.835-0.213-7.686,0.053-11.503c0.338-4.852,1.487-6.176,6.058-6.292
			c8.866-0.225,17.741-0.075,26.613-0.068c3.043,0.002,5.12,1.097,5.108,4.563c-0.012,3.584-2.362,4.356-5.272,4.393
			c-4.795,0.062-9.591,0.047-14.386,0.102c-1.676,0.019-3.361,0.056-5.022,0.251c-1.915,0.225-3.09,1.374-2.986,3.36
			c0.105,2.013,1.477,2.94,3.364,3.005c3.114,0.107,6.231,0.1,9.347,0.141c2.397,0.032,4.794,0.063,7.192,0.098
			c2.893,0.042,4.398,1.397,4.433,4.404c0.035,3.001-1.389,4.44-4.32,4.468c-5.274,0.05-10.549,0.066-15.823,0.117
			c-2.188,0.021-4.54-0.153-4.443,3.142c0.084,2.865,1.947,3.585,4.35,3.606c5.994,0.052,11.989,0.044,17.982,0.127
			c1.906,0.026,3.883,0.05,4.977,2.122c1.609,3.046-0.101,6.494-3.78,6.613c-7.422,0.241-14.887,0.429-22.279-0.11
			c-7.049-0.514-10.662-4.722-11.083-11.754c-0.214-3.583-0.038-7.19-0.038-10.785
			C1161.389,325.196,1161.375,325.196,1161.36,325.196z"/>
		<path fill="#F2A135" d="M1260.901,347.984c-4.074,0-8.15,0.074-12.221-0.024c-3.188-0.076-4.777-1.827-4.718-5.054
			c0.061-3.327,2.352-3.801,4.917-3.819c5.992-0.043,11.985,0,17.977-0.049c1.669-0.013,3.365-0.074,4.996-0.385
			c1.59-0.304,2.386-1.567,2.347-3.153c-0.04-1.629-1.003-2.81-2.608-2.919c-3.58-0.244-7.176-0.347-10.765-0.351
			c-3.631-0.004-7.208-0.202-10.513-1.872c-4.904-2.478-7.249-6.898-6.674-12.416c0.55-5.281,4.039-9.563,9.526-10.228
			c8.092-0.98,16.273-0.451,24.412-0.152c2.635,0.097,3.74,1.86,3.675,4.373c-0.066,2.585-1.527,4.042-4.02,4.147
			c-4.548,0.193-9.104,0.167-13.656,0.267c-2.154,0.047-4.313,0.094-6.458,0.285c-1.913,0.17-3.187,1.351-3.171,3.26
			c0.016,1.939,1.349,3.037,3.28,3.107c3.352,0.121,6.708,0.118,10.062,0.185c2.629,0.053,5.261-0.085,7.846,0.682
			c6.5,1.928,9.896,6.317,9.614,12.565c-0.28,6.202-4.121,10.478-10.928,11.264c-4.254,0.491-8.61,0.091-12.921,0.091
			C1260.901,347.854,1260.901,347.919,1260.901,347.984z"/>
		<path fill="#F2A135" d="M909.298,348.069c-3.592,0-7.191,0.147-10.773-0.038c-4.351-0.224-5.638-1.493-5.629-4.816
			c0.01-3.757,2.612-4.111,5.399-4.136c5.986-0.054,11.972-0.016,17.958-0.07c1.667-0.015,3.365-0.056,4.989-0.383
			c1.531-0.308,2.515-1.532,2.499-3.09c-0.016-1.58-1.053-2.818-2.625-2.941c-3.335-0.259-6.69-0.268-10.038-0.341
			c-3.344-0.073-6.71,0.179-9.946-1.016c-5.797-2.14-9.159-7.479-8.444-13.486c0.683-5.745,4.834-9.957,11.107-10.294
			c6.923-0.372,13.882-0.094,20.825-0.083c2.611,0.004,4.771,0.548,4.923,3.826c0.151,3.268-1.285,4.956-4.576,5.006
			c-4.548,0.069-9.097,0.13-13.645,0.194c-0.958,0.014-1.919-0.026-2.872,0.048c-2.569,0.2-6.032-0.19-5.909,3.505
			c0.123,3.707,3.639,3.059,6.163,3.146c4.067,0.14,8.158-0.117,12.205,0.21c7.168,0.58,11.959,5.298,12.33,11.725
			c0.384,6.65-3.843,11.835-11.033,12.697c-4.245,0.509-8.601,0.093-12.907,0.093C909.299,347.908,909.298,347.989,909.298,348.069z
			"/>
		<path fill="#F2A135" d="M636.783,348.024c-3.834,0-7.669,0.06-11.501-0.02c-2.921-0.061-4.306-1.691-4.273-4.604
			c0.035-3.034,1.724-4.277,4.558-4.292c5.752-0.031,11.504-0.039,17.256-0.059c1.198-0.004,2.398,0.003,3.595-0.038
			c2.467-0.084,5.335-0.231,5.186-3.476c-0.143-3.138-3.049-3.214-5.486-3.255c-4.553-0.076-9.111,0.025-13.66-0.132
			c-6.486-0.225-10.858-3.8-11.752-9.388c-1.065-6.655,2.448-13.262,8.739-14.616c8.233-1.772,16.693-0.873,25.058-0.597
			c2.503,0.083,2.831,2.171,2.845,4.209c0.018,2.522-1.077,4.24-3.719,4.337c-4.787,0.175-9.582,0.146-14.373,0.241
			c-2.154,0.043-4.323,0.04-6.453,0.311c-1.907,0.242-2.959,1.506-2.769,3.511c0.155,1.639,1.198,2.705,2.765,2.797
			c3.345,0.198,6.704,0.191,10.058,0.227c3.344,0.036,6.599,0.157,9.889,1.236c6.357,2.084,8.126,7.601,8.112,12.195
			c-0.016,5.116-3.681,9.342-9.039,10.77C646.878,348.7,641.795,347.843,636.783,348.024z"/>
		<path fill="#F2A135" d="M1112.047,328.536c0,4.789,0.027,9.578-0.01,14.367c-0.021,2.689-0.944,4.679-4.069,4.804
			c-2.845,0.114-4.719-1.081-4.863-4.015c-0.223-4.55-3.064-5.441-6.841-5.358c-2.633,0.058-5.269-0.05-7.903-0.02
			c-6.09,0.07-6.221,0.044-8.201,6.181c-0.84,2.603-2.441,3.319-4.821,3.211c-2.592-0.118-4.003-1.602-4.089-4.085
			c-0.24-6.936-0.865-13.933,0.36-20.789c1.49-8.333,8.254-14.499,16.88-15.311c5.698-0.536,11.492-0.392,17.223-0.132
			c4.771,0.217,6.31,1.948,6.507,6.779c0.195,4.782,0.043,9.578,0.043,14.367C1112.191,328.536,1112.119,328.536,1112.047,328.536z
			 M1090.915,329.69c0,0.004,0,0.007,0,0.011c1.912,0,3.835,0.128,5.735-0.025c5.215-0.419,6.221-1.551,6.189-6.631
			c-0.033-5.297-0.928-6.339-6.137-6.574c-2.376-0.107-4.802-0.067-7.147,0.29c-3.203,0.488-5.79,2.165-7.463,5.047
			c-2.677,4.611-1.415,7.278,3.808,7.853C1087.552,329.843,1089.242,329.69,1090.915,329.69z"/>
		<path fill="#F2A135" d="M617.228,308.346c-0.805,3.505-3.111,4.935-5.092,6.593c-3.325,2.783-6.082,6.098-9.024,9.249
			c-2.549,2.73-2.179,4.985,0.336,7.389c3.985,3.809,7.927,7.663,11.826,11.56c0.974,0.974,2.279,2.092,1.348,3.691
			c-0.663,1.139-2.049,0.998-3.229,1.1c-3.319,0.288-6.06-0.761-8.396-3.197c-3.152-3.285-6.463-6.416-9.688-9.632
			c-1.974-1.968-4.188-3.398-7.049-2.267c-2.714,1.074-2.717,3.674-2.904,6.071c-0.149,1.909-0.189,3.83-0.417,5.729
			c-0.23,1.909-1.366,2.975-3.349,3.066c-2.123,0.097-3.806-0.481-4.342-2.801c-0.161-0.697-0.279-1.421-0.283-2.134
			c-0.057-10.066-0.131-20.131-0.095-30.197c0.007-1.854,0.005-3.897,2.28-4.825c3.013-1.228,5.629,0.198,6.178,3.625
			c0.34,2.122,0.218,4.317,0.544,6.443c0.856,5.586,4.064,6.787,8.373,2.959c2.304-2.047,4.067-4.69,6.214-6.931
			C604.92,309.186,609.786,305.554,617.228,308.346z"/>
		<path fill="#F2A135" d="M841.264,327.404c0,4.316,0.158,8.639-0.039,12.946c-0.263,5.736-1.754,7.368-7.294,7.62
			c-5.262,0.239-10.575,0.365-15.813-0.08c-9.512-0.808-17.706-8.628-17.588-18.366c0.07-5.753-0.042-11.508-0.029-17.263
			c0.006-2.654,0.766-4.706,3.975-4.842c3.333-0.142,4.922,1.513,4.98,4.687c0.088,4.793-0.04,9.591,0.086,14.383
			c0.272,10.35,10.824,16.626,19.959,11.915c2.239-1.155,2.586-3.239,2.584-5.508c-0.008-6.714-0.012-13.428,0.076-20.141
			c0.028-2.148,0.089-4.402,2.858-5.143c3.314-0.888,5.906,0.5,6.11,3.976c0.308,5.255,0.08,10.542,0.08,15.815
			C841.228,327.404,841.246,327.404,841.264,327.404z"/>
		<path fill="#F2A135" d="M553.455,307.323c4.306,0,8.613-0.031,12.919,0.011c2.774,0.027,4.514,1.157,4.522,4.269
			c0.008,2.963-1.441,4.526-4.28,4.616c-5.498,0.173-11.004,0.092-16.501,0.283c-5.769,0.2-6.602,1.058-6.823,6.768
			c-0.129,3.345-0.197,6.706-0.026,10.047c0.228,4.453,1.161,5.453,5.628,5.616c5.736,0.209,11.488-0.036,17.225,0.168
			c4.193,0.149,5.639,2.282,4.638,5.981c-0.631,2.334-2.372,2.861-4.377,2.869c-7.176,0.026-14.376,0.335-21.52-0.155
			c-6.777-0.464-10.341-4.454-10.597-11.289c-0.278-7.408-0.288-14.838-0.078-22.248c0.147-5.192,1.814-6.621,7.069-6.979
			c2.145-0.146,4.305-0.064,6.459-0.074c1.914-0.009,3.829-0.002,5.743-0.002C553.455,307.243,553.455,307.283,553.455,307.323z"/>
		<path fill="#F2A135" d="M1137.026,331.897c4.456-6.874,7.202-13.776,10.481-20.378c1.829-3.684,4.545-4.547,8.215-4.077
			c2.515,0.322,3.306,1.67,2.52,3.985c-0.384,1.13-0.889,2.226-1.421,3.297c-4.378,8.801-8.76,17.6-13.18,26.38
			c-0.752,1.493-1.518,3.036-2.574,4.309c-2.894,3.49-6.066,3.255-8.662-0.544c-0.808-1.183-1.529-2.44-2.163-3.725
			c-4.454-9.03-8.939-18.045-13.253-27.142c-0.901-1.9-3.505-4.131-0.486-6.216c2.145-1.481,6.934-0.305,8.437,1.941
			c1.323,1.978,2.242,4.227,3.317,6.368c2.259,4.499,4.485,9.014,6.773,13.497C1135.333,330.189,1135.921,330.641,1137.026,331.897z
			"/>
		<path fill="#F2A135" d="M1002.37,307.334c5.037,0,10.074-0.017,15.111,0.007c2.745,0.013,4.641,1.08,4.791,4.132
			c0.168,3.421-1.764,4.704-4.876,4.785c-0.24,0.006-0.48,0.018-0.718,0.04c-9.821,0.907-9.819,0.907-9.853,11.039
			c-0.014,4.318,0.036,8.638-0.07,12.954c-0.146,5.934-1.051,7.361-4.454,7.477c-3.664,0.125-4.668-1.444-4.759-7.844
			c-0.075-5.277,0.065-10.557-0.042-15.832c-0.132-6.505-0.925-7.237-7.544-7.633c-1.197-0.072-2.4-0.069-3.592-0.185
			c-2.817-0.273-4.283-1.771-4.338-4.689c-0.059-3.15,1.73-4.248,4.513-4.267c5.277-0.035,10.554-0.01,15.831-0.01
			C1002.37,307.317,1002.37,307.326,1002.37,307.334z"/>
		<path fill="#F2A135" d="M730.23,307.33c5.028,0.002,10.057,0.009,15.085-0.001c2.862-0.005,4.51,1.237,4.551,4.258
			c0.039,2.871-1.217,4.529-4.198,4.656c-0.239,0.01-0.478,0.03-0.716,0.057c-10.431,1.189-10.427,1.189-10.446,11.861
			c-0.007,4.071-0.004,8.142-0.068,12.212c-0.023,1.431-0.099,2.887-0.39,4.281c-0.548,2.622-2.505,3.217-4.888,3.13
			c-2.471-0.091-3.314-1.659-3.391-3.776c-0.122-3.348-0.125-6.701-0.145-10.052c-0.021-3.592,0.082-7.186-0.018-10.776
			c-0.165-5.953-0.69-6.441-6.636-6.802c-0.716-0.043-1.438-0.009-2.154-0.048c-5.55-0.301-6.611-1.002-6.663-4.377
			c-0.055-3.598,1.262-4.499,7.147-4.61C721.608,307.263,725.92,307.328,730.23,307.33z"/>
		<path fill="#F2A135" d="M464.555,307.372c5.035,0,10.071-0.025,15.105,0.01c2.773,0.02,4.56,1.086,4.517,4.252
			c-0.041,2.972-1.53,4.37-4.366,4.579c-0.239,0.018-0.48,0.026-0.717,0.055c-10.449,1.29-10.439,1.291-10.453,12.074
			c-0.006,4.556,0.081,9.119-0.142,13.665c-0.203,4.132-1.874,5.967-4.811,5.714c-3.765-0.325-3.62-3.37-3.703-5.92
			c-0.179-5.51-0.026-11.03-0.141-16.543c-0.163-7.834-0.664-8.252-8.678-8.841c-2.497-0.183-5.532,0.553-6.455-3.047
			c-0.921-3.595,0.72-5.895,4.739-6.049c5.028-0.192,10.069-0.046,15.105-0.046C464.555,307.308,464.555,307.34,464.555,307.372z"/>
		<path fill="#F2A135" d="M1203.698,326.61c0-4.791,0.017-9.582-0.006-14.373c-0.016-3.19,1.306-4.889,4.721-4.819
			c3.307,0.068,4.815,1.704,4.833,4.875c0.033,5.749-0.015,11.498,0.045,17.246c0.092,8.917,0.634,9.44,9.291,9.478
			c4.791,0.021,9.582,0.004,14.371,0.09c3.073,0.055,4.992,1.376,4.877,4.802c-0.108,3.199-2.199,4.032-4.82,4.046
			c-8.623,0.046-17.252,0.2-25.866-0.084c-5.494-0.181-7.155-2.098-7.376-7.608c-0.182-4.544-0.037-9.102-0.037-13.653
			C1203.721,326.61,1203.71,326.61,1203.698,326.61z"/>
		<path fill="#F2A135" d="M556.416,332.165c-2.394,0-4.788,0.036-7.181-0.009c-3.07-0.058-4.988-1.268-4.897-4.734
			c0.081-3.117,1.848-4.192,4.612-4.21c4.788-0.031,9.576-0.039,14.363-0.003c2.771,0.02,4.54,1.11,4.533,4.249
			c-0.007,2.934-1.364,4.509-4.253,4.632c-2.388,0.101-4.784,0.021-7.177,0.021C556.416,332.129,556.416,332.147,556.416,332.165z"
			/>
		<path fill="#F2A135" d="M962.285,343.997c-0.491,2.438-2.002,3.763-4.471,3.421c-2.383-0.33-3.894-1.94-3.666-4.385
			c0.226-2.436,1.927-3.911,4.387-3.496C960.784,339.917,962.247,341.47,962.285,343.997z"/>
		<path fill="#F2A135" d="M690.123,343.075c-0.239,2.84-1.558,4.391-4.074,4.393c-2.168,0.002-3.573-1.368-3.771-3.536
			c-0.231-2.518,1.093-4.204,3.586-4.421C688.47,339.283,689.543,341.157,690.123,343.075z"/>
	</g>
	<polygon fill="#125F31" points="669.049,83.502 669.407,83.123 668.899,82.996 	"/>
	<path fill="#125F31" d="M91.946,268.595c1.07-0.459,1.58-0.279,1.138,0.992C92.705,269.256,92.326,268.925,91.946,268.595z"/>
	<path fill="#125F31" d="M85.702,259.496c-1.111,0.439-1.544,0.088-1.273-1.09C84.851,258.769,85.276,259.133,85.702,259.496z"/>
	<polygon fill="#040616" points="93.192,317.046 93.33,317.484 92.951,317.421 	"/>
	<polygon fill="#040616" points="226.317,221.514 226.061,221.146 226.348,221.559 	"/>
	<path fill="#040616" d="M183.145,175.508c0,0-0.072-0.08-0.072-0.081C183.073,175.426,183.145,175.508,183.145,175.508z"/>
	<polygon fill="#040616" points="226.348,221.559 226.454,221.774 226.317,221.515 	"/>
	<path fill="#040616" d="M338.598,305.148c0,0,0.075-0.095,0.075-0.095S338.598,305.148,338.598,305.148z"/>
	<path fill="#125F31" d="M67.204,215.228c0.322,1.088-0.232,1.216-1.1,1.003C66.47,215.898,66.837,215.563,67.204,215.228z"/>
</g>
</svg>
