<svg width="60" height="60" viewBox="0 0 60 60" fill="none" xmlns="http://www.w3.org/2000/svg">
<g clip-path="url(#clip0_643_1360)">
<path d="M12.8896 19.7002C19.4178 19.7002 24.7801 25.1274 24.7803 31.7637C24.7801 33.3152 24.4819 34.852 23.9033 36.2871L23.8984 36.2998L23.8945 36.3115C23.7681 36.6806 23.627 37.0287 23.4531 37.3496L13.9707 53.7598C13.7363 54.0808 13.5311 54.3158 13.3447 54.4727C13.1555 54.6319 13.0149 54.6876 12.9102 54.6982C12.7239 54.7172 12.3789 54.6076 11.7959 53.8398L3.19727 38.7236L3.18555 38.7041L3.17285 38.6855C1.80641 36.7218 1 34.3335 1 31.7637C1.00018 25.1275 6.36339 19.7004 12.8896 19.7002ZM12.8896 24.5869C8.94083 24.5871 5.80566 27.7771 5.80566 31.7646C5.80569 35.7523 8.94034 38.9402 12.8896 38.9404C16.8391 38.9404 19.9746 35.7531 19.9746 31.7646C19.9746 27.7764 16.8398 24.5869 12.8896 24.5869ZM52.2725 0.5C55.9628 0.5 59 3.57 59 7.33008C59.0008 8.20795 58.8322 9.07729 58.5039 9.88867L58.498 9.90234L58.4941 9.91602C58.425 10.1199 58.349 10.3063 58.2578 10.4756L52.7295 20.042C52.5991 20.22 52.4928 20.3407 52.4033 20.416C52.3137 20.4914 52.2703 20.4993 52.2637 20.5C52.261 20.5003 52.2549 20.5008 52.2422 20.4971C52.2279 20.4929 52.2005 20.4819 52.1592 20.4541C52.075 20.3975 51.9579 20.2877 51.8066 20.0898L46.7998 11.2861L46.7881 11.2666L46.7754 11.2471L46.6338 11.0361C45.946 9.96652 45.545 8.6935 45.5449 7.33008C45.5449 3.57065 48.5833 0.500025 52.2725 0.5ZM52.2725 2.93457C49.851 2.93459 47.9316 4.89159 47.9316 7.33008C47.9319 9.7685 49.8507 11.7236 52.2725 11.7236C54.6942 11.7236 56.613 9.76916 56.6133 7.33008C56.6133 4.89098 54.6945 2.93457 52.2725 2.93457Z" stroke="#086032"/>
<path d="M14.7685 59.2881C13.8904 59.3273 13.0121 59.3634 12.1337 59.3955L12.0654 57.0703C12.9372 57.0382 13.808 57.0032 14.6777 56.9639L14.7685 59.2881ZM23.8495 58.7461C22.164 58.878 20.4777 58.9903 18.7919 59.0859L18.6865 56.7627C20.3574 56.6676 22.0276 56.5579 23.6953 56.4277L23.8495 58.7461ZM32.9286 57.8096C31.2445 58.0368 29.558 58.2285 27.872 58.3945L27.6894 56.0771C29.3515 55.9132 31.0103 55.7252 32.663 55.5029L32.9286 57.8096ZM41.9804 56.1064C40.3064 56.5464 38.6219 56.8928 36.9374 57.1904L36.6142 54.8936C38.2504 54.6052 39.874 54.2722 41.4726 53.8545L41.9804 56.1064ZM50.7509 51.9297C50.3919 52.2834 50.0069 52.6091 49.5976 52.9014L49.5751 52.916L49.5663 52.9229C48.4024 53.753 47.1607 54.3479 45.9179 54.8398L45.2392 52.6494C46.3555 52.2073 47.4251 51.6903 48.3798 51.0293H48.3867L48.5175 50.9365C48.7871 50.7448 49.0416 50.533 49.2841 50.3076L50.7509 51.9297ZM51.3437 41.3496C51.9486 42.1192 52.4317 43.027 52.704 44.0469V44.0488C53.0287 45.2465 53.0458 46.468 52.8915 47.623L50.9023 47.1914C51.0052 46.3487 50.9788 45.5104 50.7792 44.7607H50.7802L50.7783 44.7549L50.7734 44.7305L50.7656 44.7061C50.5958 44.0819 50.2858 43.4839 49.8818 42.957L51.3437 41.3496ZM43.3339 36.7334H43.3359V36.7344C44.8511 37.2354 46.389 37.7888 47.8769 38.5869L46.912 40.6338C45.6222 39.9573 44.2196 39.4457 42.79 38.9727L42.787 38.9717L42.3574 38.832L42.9384 36.6045L43.3339 36.7334ZM34.8036 33.5049C34.9761 33.6305 35.1605 33.7503 35.3535 33.8643L35.3574 33.8672C36.4814 34.5163 37.7656 34.9665 39.0839 35.3984L38.4882 37.6221C37.152 37.1865 35.7791 36.7138 34.4472 35.9434L34.4355 35.9355L34.4228 35.9287C34.0985 35.7367 33.7726 35.5201 33.455 35.2637L34.8036 33.5049ZM36.787 28.0928C36.4396 28.2655 36.1004 28.4549 35.7704 28.6602L35.7568 28.668L35.7353 28.6816C35.1572 29.0525 34.633 29.4703 34.2382 29.9443H34.2265L34.0781 30.1494L33.9824 30.2812V30.2871C33.8822 30.4431 33.8015 30.6059 33.7402 30.7666L31.6826 30.5342C31.8323 29.8109 32.1478 29.1809 32.5292 28.6572C33.1631 27.7871 33.9421 27.1746 34.7109 26.6777L34.7939 26.6504L34.832 26.6016C35.2076 26.3682 35.5938 26.1532 35.9892 25.957L36.787 28.0928ZM45.2744 25.8115C43.645 26.0323 42.0316 26.3295 40.4579 26.7549L39.9218 24.5117C41.6142 24.0491 43.3248 23.7343 45.0331 23.5029L45.2744 25.8115ZM52.0947 25.2852C51.1388 25.3117 50.1836 25.3571 49.2294 25.4209L49.0859 23.0996C50.0754 23.0329 51.0643 22.9886 52.0527 22.9609L52.0947 25.2852Z" stroke="#086032"/>
</g>
<defs>
<clipPath id="clip0_643_1360">
<rect width="59" height="60" fill="white" transform="translate(0.5)"/>
</clipPath>
</defs>
</svg>
