<svg width="60" height="60" viewBox="0 0 60 60" fill="none" xmlns="http://www.w3.org/2000/svg">
<path d="M24.1455 14.7817C27.457 10.3415 32.3662 8.95158 36.9668 10.0396L37.4111 10.1519C42.5292 11.5448 47.0585 15.9538 48.5645 22.1235V22.1245C48.5745 22.1654 48.5831 22.2067 48.5928 22.2476C46.5752 21.6952 44.4422 21.6975 42.4189 22.2583C39.1988 19.9759 35.2801 19.5544 31.752 20.7388L31.4043 20.8608C26.9343 22.5104 23.4321 26.6043 22.4639 31.7661L22.3779 32.269C21.3195 39.177 25.5048 45.3084 31.2393 50.4253C30.9686 50.3855 30.6961 50.3343 30.4229 50.2759C30.0401 50.1935 29.6586 50.102 29.2803 50.0015L27.9443 49.6284H27.9453C16.0452 46.2807 8.28772 41.0954 6.07227 33.5093C4.29166 27.4129 6.01021 21.3311 9.74707 17.5649C13.1981 14.0874 18.2969 12.6817 23.5469 14.9419L23.9102 15.0981L24.1455 14.7817ZM33.4785 26.4927C35.9441 25.5842 38.7545 26.1576 40.6914 28.9565L40.6953 28.9624C40.8114 29.1251 40.9876 29.2358 41.1846 29.27C41.3814 29.3041 41.584 29.259 41.748 29.145L41.752 29.1431C44.5287 27.176 47.3645 27.5977 49.3701 29.2944C51.3981 31.0102 52.5963 34.0538 51.9395 37.3442C51.1913 41.1007 47.6798 44.3441 41.0703 46.978L39.9854 47.4019L39.9775 47.4048L39.3271 47.6714C38.7644 47.892 38.2803 48.0185 37.8867 47.9497C37.4967 47.8811 37.0861 47.5956 36.6289 47.1958H36.6279L35.8604 46.5015L35.8516 46.4937L35.3213 46.0308C29.9494 41.2647 27.7266 36.9876 28.3096 33.1782C28.818 29.8616 30.9853 27.4113 33.4785 26.4927Z" stroke="#086032"/>
</svg>
