<svg width="60" height="60" viewBox="0 0 60 60" fill="none" xmlns="http://www.w3.org/2000/svg">
<path d="M27.9164 5.63428C29.5202 5.42213 30.7371 5.45254 31.9017 5.78564C33.0666 6.12014 34.1161 6.73959 35.3646 7.77002C36.6212 8.80719 38.0509 10.2356 39.9886 12.1733L44.5638 16.7485C47.9351 20.121 50.4272 22.6151 52.0824 24.7847C53.7286 26.9425 54.5002 28.7207 54.5003 30.6548C54.5003 32.5903 53.7287 34.3699 52.0824 36.5278C50.4272 38.6974 47.935 41.1908 44.5638 44.562C41.1916 47.9342 38.6974 50.4261 36.5277 52.0815C34.3694 53.7282 32.5901 54.5005 30.6546 54.5005C28.7206 54.5004 26.9417 53.7288 24.7835 52.0825C22.6137 50.4273 20.1196 47.9352 16.7484 44.564L12.1732 39.9888C10.2354 38.0497 8.80674 36.6201 7.76987 35.3638C6.73994 34.1158 6.12168 33.0673 5.78842 31.9028V31.9019L5.67709 31.4624C5.44989 30.4271 5.44847 29.3194 5.63412 27.9155C5.84775 26.3005 6.30222 24.3308 6.91928 21.6606V21.6597L7.62729 18.5903C8.14585 16.3403 8.52753 14.6893 8.96713 13.4077C9.40293 12.1374 9.88297 11.2704 10.5765 10.5757C11.2696 9.8815 12.136 9.40177 13.4066 8.96631C14.6885 8.52699 16.34 8.14604 18.5902 7.62744L21.6595 6.9165C24.3313 6.30062 26.3013 5.84793 27.9164 5.63428ZM32.5199 26.0181C31.5929 26.0082 30.6714 26.2266 29.8216 26.6313C29.4219 26.4276 28.9716 26.3388 28.5208 26.3813C27.9683 26.4336 27.4512 26.6772 27.0599 27.0708C26.6686 27.4644 26.4273 27.9828 26.3783 28.5356C26.3383 28.9863 26.4294 29.4362 26.6351 29.8345C25.6817 31.8467 25.7097 34.3741 27.5111 36.1733C29.9369 38.602 33.6453 37.8192 35.7308 35.7339C36.1358 35.3289 36.5073 35.2087 36.7718 35.1929C36.9082 35.1847 37.0229 35.2035 37.1078 35.231C37.1855 35.2562 37.2245 35.2834 37.2337 35.2905V35.2915C37.2359 35.2942 37.2666 35.3313 37.2943 35.4165C37.3216 35.5008 37.3405 35.6152 37.3324 35.7515C37.3185 35.9831 37.2247 36.297 36.93 36.644L36.7914 36.7944C36.2843 37.3014 35.7358 37.3769 35.4769 37.3228H35.4759C34.8587 37.1959 34.2159 37.3197 33.6898 37.6665C33.1638 38.0133 32.797 38.5552 32.6703 39.1724C32.5436 39.7895 32.6673 40.4315 33.014 40.9575C33.3607 41.4835 33.9019 41.8501 34.5189 41.9771L34.5257 41.979C35.8031 42.2236 37.1224 42.0445 38.2865 41.4761C38.6846 41.6769 39.1323 41.7649 39.5804 41.7222C40.1319 41.6696 40.6476 41.4254 41.0384 41.0327C41.4291 40.6401 41.6701 40.1234 41.7201 39.5718C41.7608 39.1215 41.6699 38.6724 41.4652 38.2739C42.4195 36.2611 42.3931 33.7331 40.5912 31.9312C38.1652 29.5054 34.4568 30.2891 32.3714 32.3745C31.9665 32.7794 31.5949 32.8987 31.3304 32.9146C31.1939 32.9227 31.0794 32.904 30.9945 32.8765C30.9092 32.8488 30.8715 32.8182 30.8675 32.8149C30.8615 32.8071 30.8342 32.7697 30.8089 32.6919C30.7815 32.6073 30.7627 32.4926 30.7708 32.356C30.7867 32.0909 30.9062 31.7188 31.3109 31.314L31.3167 31.3081L31.3216 31.3022C31.628 30.976 32.0511 30.7836 32.4984 30.7671C33.12 30.7669 33.7174 30.5233 34.1615 30.0874C34.6109 29.6462 34.8665 29.0443 34.8724 28.4146C34.8782 27.7848 34.6338 27.1785 34.1927 26.729C33.7515 26.2795 33.1497 26.024 32.5199 26.0181ZM21.513 16.6978C20.7907 16.6979 20.0748 16.8402 19.4076 17.1167C18.7406 17.3932 18.1348 17.7985 17.6244 18.3091C16.5931 19.3407 16.0137 20.74 16.014 22.1987C16.0143 23.6574 16.5937 25.0561 17.6253 26.0874C18.657 27.1187 20.0563 27.698 21.515 27.6978C22.9735 27.6974 24.3724 27.1179 25.4037 26.0864C25.9143 25.5756 26.3197 24.9686 26.596 24.3013C26.8722 23.6341 27.0141 22.9189 27.014 22.1968C27.0139 21.4746 26.8715 20.7594 26.5951 20.0923C26.3186 19.4252 25.9133 18.8187 25.4027 18.3081C24.8919 17.7975 24.2849 17.392 23.6175 17.1157C22.9503 16.8395 22.2352 16.6977 21.513 16.6978Z" stroke="#086032"/>
</svg>
