<svg width="60" height="60" viewBox="0 0 60 60" fill="none" xmlns="http://www.w3.org/2000/svg">
<path d="M34.8489 23.4526C36.0224 24.4913 37.1918 25.8975 38.1848 27.604L38.3977 27.979C39.7028 30.3323 40.4157 32.6943 40.5305 34.5972C40.6477 36.5401 40.1419 37.8216 39.2561 38.314L39.1936 38.3481C38.826 38.5427 38.4616 38.5654 38.0657 38.439C37.6291 38.2995 37.143 37.9754 36.6067 37.4614L35.4924 36.394L35.7688 37.9116C35.9624 38.9764 36.0754 40.1281 36.0754 41.3345C36.0754 44.0294 35.547 46.442 34.72 48.1626C33.8752 49.9201 32.8089 50.7944 31.802 50.7944C31.2303 50.7944 30.7833 50.5146 30.4094 49.9058C30.0213 49.2736 29.743 48.3264 29.5588 47.1167H28.5696C28.3844 48.3353 28.1066 49.2813 27.718 49.9106C27.3447 50.5152 26.8964 50.7944 26.3157 50.7944C25.303 50.7944 24.2374 49.9201 23.3958 48.1636C22.5716 46.4434 22.0471 44.0307 22.0471 41.3345V41.3335C22.0462 40.1854 22.1488 39.0395 22.3528 37.9097L22.6272 36.3882L21.5139 37.4604C20.9824 37.9723 20.4967 38.2938 20.0608 38.4321C19.6456 38.5638 19.2634 38.5347 18.8792 38.3159L18.8743 38.313C17.9858 37.8202 17.4782 36.5388 17.594 34.5962C17.7074 32.6934 18.4191 30.332 19.7249 27.98V27.979C20.7653 26.1039 22.0163 24.5663 23.2737 23.4526C24.9777 24.617 26.9947 25.2448 29.0647 25.2495H29.0676C31.1342 25.243 33.1476 24.6151 34.8489 23.4526ZM8.20435 28.5503C9.56521 29.4569 11.1883 30.0034 12.9504 30.0034H12.9524C13.9594 29.9997 14.9537 29.8147 15.8899 29.4634C15.0161 31.7449 14.6292 33.9419 14.7551 35.8237C14.903 38.0328 15.7674 39.8764 17.4592 40.8169L17.7883 41.0005L17.803 40.9849C18.0252 41.0829 18.2558 41.1605 18.4915 41.2192C18.5698 41.8302 18.6233 42.459 18.6233 43.1157C18.6233 45.3165 18.1917 47.2833 17.5198 48.6812C16.8301 50.116 15.9769 50.7905 15.2043 50.7905C14.7726 50.7905 14.4311 50.5839 14.136 50.104C13.8265 49.6007 13.5998 48.8375 13.4485 47.8472L12.4602 47.8481C12.3098 48.8431 12.0826 49.6051 11.7727 50.106C11.478 50.5821 11.1348 50.7886 10.6965 50.7886C9.9181 50.7884 9.06591 50.1142 8.37915 48.6812C7.70971 47.2842 7.28163 45.3177 7.28149 43.1147C7.28306 42.1767 7.36571 41.2399 7.52759 40.3159L7.79224 38.8062L6.68774 39.8696C6.25653 40.285 5.86994 40.5393 5.53052 40.647C5.21201 40.7479 4.92419 40.7246 4.63208 40.5571L4.62622 40.5542L4.50122 40.4761C3.89546 40.05 3.53395 39.0758 3.62231 37.5894C3.71423 36.0438 4.29181 34.1175 5.35767 32.1958L5.35864 32.1968C6.19731 30.6875 7.19875 29.4516 8.20435 28.5503ZM49.9182 28.5513C50.9254 29.4539 51.9282 30.6882 52.7629 32.1978L52.762 32.1987C53.8278 34.1186 54.4082 36.0428 54.5012 37.5884C54.5967 39.1742 54.1799 40.1781 53.5002 40.5562L53.4934 40.5601C53.1997 40.7289 52.9124 40.7513 52.594 40.6499C52.2538 40.5415 51.8658 40.2857 51.4309 39.8677L50.3167 38.7964L50.592 40.3169C50.7503 41.1901 50.8469 42.1301 50.8469 43.1157C50.8469 45.3164 50.4148 47.2833 49.7424 48.6812C49.0521 50.1163 48.1985 50.7905 47.428 50.7905C46.9938 50.7905 46.6514 50.5832 46.3567 50.104C46.0475 49.6011 45.8215 48.8382 45.6721 47.8481H44.6838C44.5335 48.844 44.3062 49.6059 43.9963 50.1069C43.7016 50.5835 43.3585 50.7905 42.9202 50.7905C42.142 50.7903 41.2905 50.1156 40.6038 48.6821C39.9342 47.2842 39.5061 45.3162 39.5061 43.1118C39.5061 42.4597 39.5562 41.833 39.634 41.2231C39.9884 41.1342 40.3307 41.0007 40.6516 40.8237L40.6526 40.8228C42.6638 39.7087 43.5808 37.368 43.3987 34.4224H43.3997C43.3096 32.8589 42.901 31.1622 42.2463 29.4644C43.1578 29.8064 44.1436 30.0015 45.1799 30.0015H45.1819C46.8722 29.9959 48.5189 29.4886 49.9182 28.5513ZM45.1653 15.2915C46.7472 15.3387 48.2491 15.9999 49.3518 17.1353C50.4553 18.2715 51.0724 19.7935 51.0725 21.3774C51.0725 22.9614 50.4553 24.4833 49.3518 25.6196C48.2482 26.756 46.7447 27.4181 45.1614 27.4644L45.1116 27.4653C43.5211 27.4482 41.9994 26.8108 40.8733 25.6851C39.7314 24.5435 39.0893 22.995 39.0891 21.3804C39.0889 19.7658 39.7308 18.2175 40.8723 17.0757C42.0112 15.9365 43.5547 15.2946 45.1653 15.2915ZM10.6155 15.7573C11.7272 15.2967 12.9508 15.1761 14.1311 15.4106C15.3112 15.6452 16.3953 16.2242 17.2463 17.0747C18.0974 17.9252 18.6771 19.009 18.9124 20.189C19.1475 21.369 19.0276 22.5927 18.5676 23.7046C18.1077 24.8164 17.3284 25.767 16.3284 26.436C15.3282 27.1051 14.1518 27.4627 12.9485 27.4634H12.8079C11.2442 27.4267 9.75229 26.7916 8.6438 25.6831C7.50218 24.5413 6.86008 22.993 6.85962 21.3784C6.85967 20.1752 7.21668 18.999 7.88501 17.9985C8.55346 16.998 9.50384 16.218 10.6155 15.7573ZM29.0647 7.33057C30.0621 7.31497 31.0527 7.49785 31.9788 7.86865C32.9049 8.23951 33.7482 8.79096 34.4592 9.49072C35.1703 10.1905 35.7347 11.0248 36.1204 11.9448C36.506 12.8649 36.705 13.8525 36.7053 14.8501C36.7057 15.8476 36.5072 16.8351 36.1223 17.7554C35.7373 18.6757 35.1737 19.5112 34.4631 20.2114C33.7526 20.9116 32.9094 21.463 31.9836 21.8345C31.0578 22.206 30.0671 22.3904 29.0696 22.3755C27.0947 22.3459 25.2109 21.54 23.8245 20.1333C22.4379 18.7264 21.6601 16.8303 21.6594 14.855C21.6588 12.8798 22.4351 10.9835 23.8206 9.57568C25.2061 8.16788 27.0897 7.36145 29.0647 7.33057Z" stroke="#086032"/>
</svg>
